<?xml version="1.0" encoding="UTF-8" standalone="no"?>
<!-- Created with Inkscape (http://www.inkscape.org/) -->

<svg
   width="77.10984mm"
   height="98.310341mm"
   viewBox="0 0 77.10984 98.310341"
   version="1.1"
   id="svg1"
   xml:space="preserve"
   inkscape:export-filename="bitmap.svg"
   inkscape:export-xdpi="96"
   inkscape:export-ydpi="96"
   xmlns:inkscape="http://www.inkscape.org/namespaces/inkscape"
   xmlns:sodipodi="http://sodipodi.sourceforge.net/DTD/sodipodi-0.dtd"
   xmlns="http://www.w3.org/2000/svg"
   xmlns:svg="http://www.w3.org/2000/svg"><sodipodi:namedview
     id="namedview1"
     pagecolor="#ffffff"
     bordercolor="#000000"
     borderopacity="0.25"
     inkscape:showpageshadow="2"
     inkscape:pageopacity="0.0"
     inkscape:pagecheckerboard="0"
     inkscape:deskcolor="#d1d1d1"
     inkscape:document-units="mm"
     inkscape:export-bgcolor="#ffffff00" /><defs
     id="defs1" /><g
     inkscape:label="Capa 1"
     inkscape:groupmode="layer"
     id="layer1"
     transform="translate(-67.318071,-85.818639)"><path
       style="fill:#ffffff"
       d="m 74.922799,183.76429 c -1.850341,-1.05197 -3.77019,-2.28404 -5.484785,-3.51987 l -0.694026,-0.50023 4.62e-4,-1.1908 c 6.16e-4,-1.59029 0.03713,-2.09688 0.256012,-3.55226 0.116344,-0.77357 0.205243,-1.25722 0.358854,-1.95231 0.398487,-1.80316 1.083578,-3.91391 1.765379,-5.4391 0.493698,-1.1044 0.478995,-1.04167 0.298242,-1.27246 -0.151599,-0.19357 -0.591888,-0.85259 -0.824832,-1.23461 -0.952603,-1.56222 -1.835982,-4.05858 -2.267941,-6.40903 -0.350081,-1.90491 -0.391853,-2.47096 -0.391796,-5.30925 5.8e-5,-2.88971 0.04414,-3.458 0.431971,-5.56896 0.444592,-2.41989 1.430852,-5.11893 2.508209,-6.86407 0.09389,-0.15207 0.16321,-0.29538 0.154053,-0.31844 -0.0092,-0.0231 -0.181209,-0.27973 -0.382337,-0.57036 -1.04814,-1.51456 -1.783654,-2.94664 -2.323925,-4.52479 -0.47198,-1.37867 -0.817023,-3.00324 -0.956038,-4.50133 -0.05306,-0.57181 -0.06947,-2.12375 -0.03158,-2.98645 0.06039,-1.37486 0.139979,-2.06401 0.36323,-3.14516 0.781419,-3.78423 2.524377,-7.2889 5.031789,-10.11771 1.045414,-1.17941 1.838932,-1.9141 3.353491,-3.10487 l 0.25373,-0.19948 -0.0086,-0.17081 c -0.0047,-0.094 -0.05408,-0.42401 -0.109648,-0.73348 -0.337957,-1.88206 -0.522698,-3.58189 -0.616222,-5.66994 -0.106384,-2.37519 0.131266,-5.719586 0.572171,-8.05203 0.942509,-4.985991 3.087265,-8.790601 5.780067,-10.253335 0.82995,-0.450831 1.761531,-0.742002 2.471755,-0.772562 0.607094,-0.02612 1.655813,0.06286 2.123206,0.180144 0.485291,0.121779 1.2676,0.482 1.829659,0.842485 0.85261,0.546831 1.79972,1.464601 2.52596,2.447724 1.34964,1.827018 2.45706,4.477988 3.16229,7.569965 0.25891,1.135177 0.57348,3.029654 0.64227,3.868109 0.049,0.59765 0.0593,0.66527 0.10369,0.68173 0.0496,0.0184 0.23003,-0.0697 0.81981,-0.40024 3.32262,-1.862158 7.116371,-2.843032 10.647781,-2.752991 3.41105,0.08697 6.71022,1.013222 9.86635,2.770001 0.65295,0.36345 0.7624,0.41422 0.8047,0.37333 0.0183,-0.0177 0.0453,-0.19884 0.0599,-0.40251 0.0672,-0.93523 0.37559,-2.846242 0.6679,-4.139366 1.30641,-5.779359 3.93367,-9.688794 7.2218,-10.74623 1.77191,-0.569833 3.63795,-0.332684 5.19056,0.659649 1.99645,1.276005 3.49968,3.466344 4.598,6.699678 1.57063,4.623776 1.91666,11.227739 0.88314,16.854619 -0.14116,0.76857 -0.18221,1.06111 -0.15758,1.12316 0.01,0.025 0.26814,0.24145 0.57384,0.48109 0.75733,0.59367 1.14807,0.93124 1.74766,1.50987 2.57151,2.48159 4.40121,5.35053 5.55669,8.7128 0.63538,1.84885 0.96433,3.42634 1.0921,5.23713 0.0502,0.71192 0.0503,3.08934 1.4e-4,3.60683 -0.26093,2.69061 -1.01024,5.1908 -2.19219,7.31461 -0.33722,0.60593 -0.52963,0.91294 -1.04644,1.66974 l -0.45056,0.65978 0.0613,0.10487 c 0.62989,1.07754 1.26358,2.40186 1.63798,3.42316 0.55431,1.51204 0.94593,3.16586 1.25309,5.29182 0.12976,0.8981 0.13919,1.103 0.15548,3.379 0.0222,3.10805 -0.009,3.67277 -0.29329,5.32369 -0.40792,2.36784 -0.99502,4.27517 -1.82968,5.94415 -0.40373,0.80729 -0.95731,1.71607 -1.34916,2.21483 -0.0718,0.0914 -0.1306,0.19003 -0.1306,0.21911 0,0.0841 0.0999,0.34283 0.2949,0.76339 1.15394,2.48925 1.91189,5.21242 2.37476,8.53206 0.0994,0.71279 0.14152,1.64419 0.13048,2.88425 l -0.009,1.02317 -0.44776,0.32676 c -1.23323,0.89996 -2.9422,2.03207 -4.32834,2.86732 -0.72912,0.43935 -1.96225,1.15088 -1.99454,1.15088 -0.009,0 0.0557,-0.1463 0.14365,-0.32511 0.47061,-0.95702 0.77522,-2.243 0.88266,-3.7263 0.0465,-0.64152 0.0211,-2.34926 -0.0444,-2.98913 -0.14346,-1.40179 -0.35873,-2.58229 -0.71821,-3.93866 -0.48747,-1.83925 -0.91858,-2.91514 -2.00526,-5.00444 l -0.66689,-1.2822 7.3e-4,-0.67992 c 4e-4,-0.37396 0.0145,-0.73753 0.0312,-0.80794 0.0481,-0.20167 0.27838,-0.63853 0.45927,-0.87124 0.0909,-0.11695 0.35219,-0.40092 0.5806,-0.63104 0.85712,-0.86352 1.21055,-1.35447 1.66052,-2.30657 0.76275,-1.61397 1.27899,-3.71292 1.52271,-6.19113 0.0659,-0.66978 0.0911,-2.41104 0.046,-3.17889 -0.23647,-4.02845 -1.43478,-7.75366 -3.03824,-9.44503 -0.65748,-0.69351 -1.01585,-1.58045 -0.95148,-2.35485 0.06,-0.72152 0.37857,-1.3624 1.00254,-2.01663 0.74248,-0.77848 1.21149,-1.38966 1.71994,-2.24127 0.95535,-1.60011 1.56573,-3.46582 1.79194,-5.47735 0.041,-0.36418 0.0537,-0.71351 0.054,-1.48602 4.8e-4,-1.05648 -0.0205,-1.37105 -0.15054,-2.25684 -0.71073,-4.84142 -3.6401,-9.26643 -7.69015,-11.61645 -1.84752,-1.07202 -3.95049,-1.69955 -5.93457,-1.77091 -0.5688,-0.0205 -1.16221,0.0183 -1.88058,0.12293 -1.24515,0.1813 -1.79714,0.14028 -2.46268,-0.18299 -0.72855,-0.35389 -1.06004,-0.7406 -1.552,-1.81052 -0.37857,-0.82332 -0.62826,-1.2158 -1.29277,-2.03202 -0.93967,-1.1542 -1.52983,-1.71955 -2.64131,-2.53027 -2.0418,-1.48931 -4.40266,-2.54258 -6.75266,-3.01263 -0.68162,-0.13633 -0.85074,-0.14923 -2.15563,-0.16438 -1.65972,-0.0193 -2.05079,0.01 -3.0533,0.2249 -1.88667,0.40531 -3.790951,1.1997 -5.492521,2.29127 -1.65378,1.06092 -2.65149,1.95326 -3.75898,3.362 -0.53498,0.68051 -0.79973,1.10835 -1.13968,1.84174 -0.33396,0.72046 -0.54152,1.0496 -0.84978,1.34758 -0.35798,0.34604 -0.93876,0.63578 -1.4754,0.73605 -0.29162,0.0545 -0.89782,0.0369 -1.43283,-0.0417 -0.67676,-0.0993 -1.153144,-0.13264 -1.892384,-0.13235 -1.016642,3.9e-4 -1.627268,0.0752 -2.628063,0.32177 -1.989885,0.49035 -3.749983,1.37408 -5.449651,2.73623 -0.468339,0.37533 -1.442509,1.31452 -1.855981,1.78933 -2.331786,2.67772 -3.71969,5.90789 -4.060329,9.44991 -0.05863,0.60962 -0.04908,2.16016 0.01706,2.77005 0.322202,2.97109 1.411122,5.46334 3.275934,7.49774 0.511377,0.55788 0.687268,0.7727 0.82967,1.01328 0.273909,0.46276 0.361558,0.75906 0.38268,1.2937 0.03629,0.91842 -0.212516,1.52657 -0.975606,2.38467 -1.208058,1.35848 -2.168838,3.7129 -2.656346,6.50947 -0.560233,3.21375 -0.455175,6.61562 0.295041,9.55368 0.319167,1.24996 0.807462,2.5328 1.261597,3.31447 0.359306,0.61844 0.721326,1.07448 1.339975,1.68799 0.21604,0.21425 0.46944,0.48839 0.563111,0.60921 0.186396,0.24041 0.429896,0.69738 0.477141,0.89544 0.01648,0.0691 0.0303,0.43371 0.0307,0.81024 l 7.3e-4,0.6846 -0.579834,1.10439 c -0.602427,1.14742 -0.881144,1.72167 -1.163599,2.39737 -0.909501,2.17577 -1.528861,4.86471 -1.69192,7.34545 -0.05215,0.79335 -0.02061,2.35973 0.06074,3.01722 0.167903,1.35698 0.501661,2.53134 0.929181,3.26943 0.04826,0.0833 0.08416,0.15149 0.07977,0.15149 -0.0044,0 -0.296666,-0.16413 -0.649505,-0.36473 z m 7.707932,-75.23478 c 1.771982,-0.43683 2.58403,-0.54227 4.375608,-0.56819 l 1.14304,-0.0165 0.50551,-0.72463 0.50552,-0.72462 -5e-5,-0.83679 c -1e-4,-1.71109 -0.0611,-3.1858 -0.17871,-4.32347 -0.16417,-1.587525 -0.54248,-3.469884 -0.98449,-4.898567 -0.705106,-2.279097 -1.766004,-4.186592 -2.709451,-4.871597 -0.24706,-0.179381 -0.351294,-0.190089 -0.546784,-0.05617 -1.355468,0.928575 -2.679281,4.281843 -3.145353,7.967295 -0.176566,1.396199 -0.235402,2.395109 -0.235832,4.003979 -4.82e-4,1.80018 0.09615,3.25885 0.312356,4.71482 0.06648,0.44768 0.08864,0.50788 0.186984,0.50788 0.03755,0 0.384797,-0.078 0.771652,-0.1734 z m 47.364309,0.11998 c 0.0651,-0.11761 0.23509,-1.4778 0.31425,-2.51465 0.23965,-3.13928 0.0493,-6.199009 -0.55556,-8.930517 -0.5881,-2.655754 -1.6711,-4.932701 -2.69242,-5.660679 -0.24224,-0.172661 -0.32976,-0.169492 -0.59276,0.02146 -1.0787,0.783211 -2.2693,3.110308 -2.97374,5.812345 -0.40145,1.539839 -0.64981,2.991431 -0.78004,4.559041 -0.0646,0.7778 -0.0908,1.51763 -0.10667,3.01531 l -0.0164,1.54373 0.50697,0.72474 0.50697,0.72474 1.12872,0.0162 c 1.81839,0.0261 2.71648,0.14498 4.48691,0.59379 0.62946,0.15957 0.73084,0.17195 0.77374,0.0945 z m -26.83331,42.2206 c -1.33833,-0.0401 -2.29789,-0.16665 -3.503631,-0.46203 -1.03296,-0.25305 -1.91833,-0.5676 -2.86948,-1.01946 -1.35028,-0.64147 -2.36808,-1.3311 -3.38379,-2.29275 -1.00224,-0.9489 -1.65353,-1.81197 -2.24411,-2.97383 -0.41437,-0.81519 -0.65338,-1.46352 -0.84598,-2.29473 -0.1472,-0.63528 -0.15298,-0.7157 -0.15236,-2.12004 6.6e-4,-1.48 0.003,-1.50172 0.22318,-2.36608 0.52977,-2.07698 1.6542,-3.96867 3.31725,-5.58079 1.56051,-1.51271 3.43876,-2.67339 5.60015,-3.46065 1.753911,-0.63883 2.851541,-0.88195 4.828911,-1.06956 0.95219,-0.0904 1.0846,-0.0944 2.04477,-0.0619 1.51254,0.0512 2.1507,0.10375 3.01491,0.24843 1.63353,0.27347 3.11713,0.73479 4.58459,1.42555 1.61828,0.76177 2.87127,1.60336 4.08296,2.74239 1.78047,1.67372 2.96803,3.61942 3.51073,5.75202 0.22156,0.87066 0.22339,0.88998 0.22405,2.37057 6.6e-4,1.47199 -0.007,1.55331 -0.21227,2.36316 -0.19855,0.78204 -0.39448,1.30055 -0.78068,2.06603 -0.87089,1.7262 -2.22708,3.19573 -4.00643,4.34128 -0.56046,0.36083 -0.90642,0.55442 -1.53125,0.85686 -1.70639,0.82594 -3.67912,1.35636 -5.57319,1.49848 -0.37376,0.0281 -5.60653,0.0587 -6.32833,0.037 z m 5.95519,-3.81656 c 1.58631,-0.14534 2.60124,-0.40795 3.91043,-1.01179 1.20968,-0.55795 1.94028,-1.04708 2.70412,-1.81039 0.90166,-0.90102 1.53203,-1.94024 1.7991,-2.96595 0.2773,-1.06498 0.3018,-1.65986 0.10693,-2.59692 -0.26823,-1.28983 -0.7772,-2.36211 -1.58191,-3.33271 -0.51536,-0.6216 -1.62997,-1.6451 -2.26572,-2.08052 -0.94491,-0.64716 -2.31149,-1.29204 -3.5336,-1.66749 -0.87653,-0.26928 -2.02538,-0.50138 -2.88561,-0.58296 -0.48595,-0.0461 -2.49383,-0.0469 -2.97013,-10e-4 -2.20716,0.21188 -4.423421,0.96156 -6.194001,2.09522 -1.63851,1.04909 -3.14912,2.78367 -3.71528,4.26614 -0.3026,0.79233 -0.46237,1.53482 -0.48537,2.25566 -0.0142,0.44537 -0.008,0.52905 0.0635,0.90892 0.20514,1.08386 0.51875,1.8851 1.0165,2.59704 0.32662,0.46719 0.53968,0.71184 1.044,1.19882 1.33645,1.29051 3.11586,2.14909 5.345251,2.57913 0.58766,0.11336 0.89992,0.14822 1.56716,0.17499 0.83736,0.0336 5.64887,0.013 6.07459,-0.0261 z m -3.8358,-3.89837 c -0.20768,-0.0121 -0.38875,-0.0388 -0.45839,-0.0674 -0.16186,-0.0666 -0.52616,-0.43071 -0.65405,-0.6537 -0.0592,-0.10316 -0.12995,-0.26579 -0.15731,-0.36141 -0.054,-0.18877 -0.0542,-0.18691 0.16731,-1.36987 0.0342,-0.18251 0.0642,-0.44869 0.0667,-0.59152 0.006,-0.34702 -0.0284,-0.4053 -0.36141,-0.61081 -0.64715,-0.39944 -0.93498,-0.62753 -1.2024,-0.95282 -0.39194,-0.47676 -0.51529,-0.88487 -0.39986,-1.32299 0.0801,-0.3041 0.21655,-0.52786 0.47608,-0.78083 0.32851,-0.32021 0.44534,-0.36318 1.0334,-0.38014 0.26785,-0.008 0.49983,3.8e-4 0.60282,0.0211 0.19982,0.0401 0.57038,0.21079 1.02709,0.47313 0.18368,0.10551 0.34945,0.19184 0.36839,0.19184 0.0189,0 0.17534,-0.0855 0.34758,-0.19002 0.38058,-0.23093 0.74042,-0.3995 0.97871,-0.45847 0.2313,-0.0572 0.86728,-0.0586 1.08603,-0.002 0.34477,0.0887 0.75528,0.4189 0.92672,0.7454 0.23782,0.4529 0.24387,0.89314 0.0184,1.33757 -0.18252,0.35977 -0.79571,0.93059 -1.34339,1.25056 -0.25473,0.14882 -0.39673,0.2736 -0.45132,0.39658 -0.0625,0.1407 -0.0497,0.49391 0.0319,0.88458 0.15563,0.74513 0.18395,1.22391 0.0921,1.55717 -0.0926,0.3362 -0.34029,0.6164 -0.68104,0.77053 -0.31961,0.14458 -0.61263,0.16663 -1.51399,0.11392 z m -19.554686,-7.53298 c -0.32244,-0.0258 -0.918724,-0.14756 -1.145494,-0.23386 -0.82917,-0.31559 -1.538465,-0.95232 -1.954976,-1.75498 -0.267837,-0.51615 -0.359656,-0.86997 -0.359656,-1.38591 0,-2.00448 1.201393,-3.70198 3.018188,-4.26453 0.560179,-0.17345 1.45139,-0.18714 2.076699,-0.0319 0.315126,0.0782 0.903744,0.36015 1.195144,0.57241 0.305,0.22215 0.7074,0.63096 0.90359,0.91797 0.0844,0.12345 0.2466,0.41053 0.36048,0.63796 l 0.20705,0.41352 v 0.65486 c 0,0.97836 -0.0393,1.17855 -0.37872,1.92765 -0.27882,0.61541 -0.56091,1.00911 -1.08209,1.51018 -0.684578,0.65816 -1.313277,0.96204 -2.148838,1.03863 -0.173636,0.0159 -0.33585,0.0271 -0.360477,0.0249 -0.02463,-0.002 -0.173532,-0.0143 -0.3309,-0.0269 z m 39.561916,6.9e-4 c -0.5248,-0.0503 -1.05619,-0.24314 -1.52106,-0.55195 -0.26269,-0.17451 -0.85305,-0.72777 -1.06545,-0.9985 -0.43091,-0.54925 -0.87374,-1.50436 -0.94221,-2.03215 -0.017,-0.13073 -0.0308,-0.534 -0.0308,-0.89617 v -0.65848 l 0.20528,-0.40989 c 0.11291,-0.22545 0.27581,-0.51161 0.36202,-0.63591 0.2019,-0.29114 0.60116,-0.69596 0.90382,-0.91641 0.29197,-0.21267 0.88018,-0.49421 1.19677,-0.57282 0.55881,-0.13875 1.46939,-0.13973 1.98067,-0.002 0.89584,0.24111 1.74267,0.83684 2.27642,1.60144 0.48917,0.70073 0.79245,1.61843 0.82746,2.50385 0.0256,0.64755 -0.0531,1.00262 -0.35201,1.58884 -0.36179,0.70946 -0.95208,1.27895 -1.6802,1.621 -0.60024,0.28197 -1.46582,0.4259 -2.16068,0.35928 z"
       id="path2" /><path
       style="fill:#ffffff"
       d="m 74.922799,183.76429 c -1.850341,-1.05197 -3.77019,-2.28404 -5.484785,-3.51987 l -0.694026,-0.50023 4.62e-4,-1.1908 c 6.16e-4,-1.59029 0.03713,-2.09688 0.256012,-3.55226 0.116344,-0.77357 0.205243,-1.25722 0.358854,-1.95231 0.398487,-1.80316 1.083578,-3.91391 1.765379,-5.4391 0.493698,-1.1044 0.478995,-1.04167 0.298242,-1.27246 -0.151599,-0.19357 -0.591888,-0.85259 -0.824832,-1.23461 -0.952603,-1.56222 -1.835982,-4.05858 -2.267941,-6.40903 -0.350081,-1.90491 -0.391853,-2.47096 -0.391796,-5.30925 5.8e-5,-2.88971 0.04414,-3.458 0.431971,-5.56896 0.444592,-2.41989 1.430852,-5.11893 2.508209,-6.86407 0.09389,-0.15207 0.16321,-0.29538 0.154053,-0.31844 -0.0092,-0.0231 -0.181209,-0.27973 -0.382337,-0.57036 -1.04814,-1.51456 -1.783654,-2.94664 -2.323925,-4.52479 -0.47198,-1.37867 -0.817023,-3.00324 -0.956038,-4.50133 -0.05306,-0.57181 -0.06947,-2.12375 -0.03158,-2.98645 0.06039,-1.37486 0.139979,-2.06401 0.36323,-3.14516 0.781419,-3.78423 2.524377,-7.2889 5.031789,-10.11771 1.045414,-1.17941 1.838932,-1.9141 3.353491,-3.10487 l 0.25373,-0.19948 -0.0086,-0.17081 c -0.0047,-0.094 -0.05408,-0.42401 -0.109648,-0.73348 -0.337957,-1.88206 -0.522698,-3.58189 -0.616222,-5.66994 -0.106384,-2.37519 0.131266,-5.719586 0.572171,-8.05203 0.942509,-4.985991 3.087265,-8.790601 5.780067,-10.253335 0.82995,-0.450831 1.761531,-0.742002 2.471755,-0.772562 0.607094,-0.02612 1.655813,0.06286 2.123206,0.180144 0.485291,0.121779 1.2676,0.482 1.829659,0.842485 0.85261,0.546831 1.79972,1.464601 2.52596,2.447724 1.34964,1.827018 2.45706,4.477988 3.16229,7.569965 0.25891,1.135177 0.57348,3.029654 0.64227,3.868109 0.049,0.59765 0.0593,0.66527 0.10369,0.68173 0.0496,0.0184 0.23003,-0.0697 0.81981,-0.40024 3.32262,-1.862158 7.116371,-2.843032 10.647781,-2.752991 3.41105,0.08697 6.71022,1.013222 9.86635,2.770001 0.65295,0.36345 0.7624,0.41422 0.8047,0.37333 0.0183,-0.0177 0.0453,-0.19884 0.0599,-0.40251 0.0672,-0.93523 0.37559,-2.846242 0.6679,-4.139366 1.30641,-5.779359 3.93367,-9.688794 7.2218,-10.74623 1.77191,-0.569833 3.63795,-0.332684 5.19056,0.659649 1.99645,1.276005 3.49968,3.466344 4.598,6.699678 1.57063,4.623776 1.91666,11.227739 0.88314,16.854619 -0.14116,0.76857 -0.18221,1.06111 -0.15758,1.12316 0.01,0.025 0.26814,0.24145 0.57384,0.48109 0.75733,0.59367 1.14807,0.93124 1.74766,1.50987 2.57151,2.48159 4.40121,5.35053 5.55669,8.7128 0.63538,1.84885 0.96433,3.42634 1.0921,5.23713 0.0502,0.71192 0.0503,3.08934 1.4e-4,3.60683 -0.26093,2.69061 -1.01024,5.1908 -2.19219,7.31461 -0.33722,0.60593 -0.52963,0.91294 -1.04644,1.66974 l -0.45056,0.65978 0.0613,0.10487 c 0.62989,1.07754 1.26358,2.40186 1.63798,3.42316 0.55431,1.51204 0.94593,3.16586 1.25309,5.29182 0.12976,0.8981 0.13919,1.103 0.15548,3.379 0.0222,3.10805 -0.009,3.67277 -0.29329,5.32369 -0.40792,2.36784 -0.99502,4.27517 -1.82968,5.94415 -0.40373,0.80729 -0.95731,1.71607 -1.34916,2.21483 -0.0718,0.0914 -0.1306,0.19003 -0.1306,0.21911 0,0.0841 0.0999,0.34283 0.2949,0.76339 1.15394,2.48925 1.91189,5.21242 2.37476,8.53206 0.0994,0.71279 0.14152,1.64419 0.13048,2.88425 l -0.009,1.02317 -0.44776,0.32676 c -1.23323,0.89996 -2.9422,2.03207 -4.32834,2.86732 -0.72912,0.43935 -1.96225,1.15088 -1.99454,1.15088 -0.009,0 0.0557,-0.1463 0.14365,-0.32511 0.47061,-0.95702 0.77522,-2.243 0.88266,-3.7263 0.0465,-0.64152 0.0211,-2.34926 -0.0444,-2.98913 -0.14346,-1.40179 -0.35873,-2.58229 -0.71821,-3.93866 -0.48747,-1.83925 -0.91858,-2.91514 -2.00526,-5.00444 l -0.66689,-1.2822 7.3e-4,-0.67992 c 4e-4,-0.37396 0.0145,-0.73753 0.0312,-0.80794 0.0481,-0.20167 0.27838,-0.63853 0.45927,-0.87124 0.0909,-0.11695 0.35219,-0.40092 0.5806,-0.63104 0.85712,-0.86352 1.21055,-1.35447 1.66052,-2.30657 0.76275,-1.61397 1.27899,-3.71292 1.52271,-6.19113 0.0659,-0.66978 0.0911,-2.41104 0.046,-3.17889 -0.23647,-4.02845 -1.43478,-7.75366 -3.03824,-9.44503 -0.65748,-0.69351 -1.01585,-1.58045 -0.95148,-2.35485 0.06,-0.72152 0.37857,-1.3624 1.00254,-2.01663 0.74248,-0.77848 1.21149,-1.38966 1.71994,-2.24127 0.95535,-1.60011 1.56573,-3.46582 1.79194,-5.47735 0.041,-0.36418 0.0537,-0.71351 0.054,-1.48602 4.8e-4,-1.05648 -0.0205,-1.37105 -0.15054,-2.25684 -0.71073,-4.84142 -3.6401,-9.26643 -7.69015,-11.61645 -1.84752,-1.07202 -3.95049,-1.69955 -5.93457,-1.77091 -0.5688,-0.0205 -1.16221,0.0183 -1.88058,0.12293 -1.24515,0.1813 -1.79714,0.14028 -2.46268,-0.18299 -0.72855,-0.35389 -1.06004,-0.7406 -1.552,-1.81052 -0.37857,-0.82332 -0.62826,-1.2158 -1.29277,-2.03202 -0.93967,-1.1542 -1.52983,-1.71955 -2.64131,-2.53027 -2.0418,-1.48931 -4.40266,-2.54258 -6.75266,-3.01263 -0.68162,-0.13633 -0.85074,-0.14923 -2.15563,-0.16438 -1.65972,-0.0193 -2.05079,0.01 -3.0533,0.2249 -1.88667,0.40531 -3.790951,1.1997 -5.492521,2.29127 -1.65378,1.06092 -2.65149,1.95326 -3.75898,3.362 -0.53498,0.68051 -0.79973,1.10835 -1.13968,1.84174 -0.33396,0.72046 -0.54152,1.0496 -0.84978,1.34758 -0.35798,0.34604 -0.93876,0.63578 -1.4754,0.73605 -0.29162,0.0545 -0.89782,0.0369 -1.43283,-0.0417 -0.67676,-0.0993 -1.153144,-0.13264 -1.892384,-0.13235 -1.016642,3.9e-4 -1.627268,0.0752 -2.628063,0.32177 -1.989885,0.49035 -3.749983,1.37408 -5.449651,2.73623 -0.468339,0.37533 -1.442509,1.31452 -1.855981,1.78933 -2.331786,2.67772 -3.71969,5.90789 -4.060329,9.44991 -0.05863,0.60962 -0.04908,2.16016 0.01706,2.77005 0.322202,2.97109 1.411122,5.46334 3.275934,7.49774 0.511377,0.55788 0.687268,0.7727 0.82967,1.01328 0.273909,0.46276 0.361558,0.75906 0.38268,1.2937 0.03629,0.91842 -0.212516,1.52657 -0.975606,2.38467 -1.208058,1.35848 -2.168838,3.7129 -2.656346,6.50947 -0.560233,3.21375 -0.455175,6.61562 0.295041,9.55368 0.319167,1.24996 0.807462,2.5328 1.261597,3.31447 0.359306,0.61844 0.721326,1.07448 1.339975,1.68799 0.21604,0.21425 0.46944,0.48839 0.563111,0.60921 0.186396,0.24041 0.429896,0.69738 0.477141,0.89544 0.01648,0.0691 0.0303,0.43371 0.0307,0.81024 l 7.3e-4,0.6846 -0.579834,1.10439 c -0.602427,1.14742 -0.881144,1.72167 -1.163599,2.39737 -0.909501,2.17577 -1.528861,4.86471 -1.69192,7.34545 -0.05215,0.79335 -0.02061,2.35973 0.06074,3.01722 0.167903,1.35698 0.501661,2.53134 0.929181,3.26943 0.04826,0.0833 0.08416,0.15149 0.07977,0.15149 -0.0044,0 -0.296666,-0.16413 -0.649505,-0.36473 z m 7.707932,-75.23478 c 1.771982,-0.43683 2.58403,-0.54227 4.375608,-0.56819 l 1.14304,-0.0165 0.50551,-0.72463 0.50552,-0.72462 -5e-5,-0.83679 c -1e-4,-1.71109 -0.0611,-3.1858 -0.17871,-4.32347 -0.16417,-1.587525 -0.54248,-3.469884 -0.98449,-4.898567 -0.705106,-2.279097 -1.766004,-4.186592 -2.709451,-4.871597 -0.24706,-0.179381 -0.351294,-0.190089 -0.546784,-0.05617 -1.355468,0.928575 -2.679281,4.281843 -3.145353,7.967295 -0.176566,1.396199 -0.235402,2.395109 -0.235832,4.003979 -4.82e-4,1.80018 0.09615,3.25885 0.312356,4.71482 0.06648,0.44768 0.08864,0.50788 0.186984,0.50788 0.03755,0 0.384797,-0.078 0.771652,-0.1734 z m 47.364309,0.11998 c 0.0651,-0.11761 0.23509,-1.4778 0.31425,-2.51465 0.23965,-3.13928 0.0493,-6.199009 -0.55556,-8.930517 -0.5881,-2.655754 -1.6711,-4.932701 -2.69242,-5.660679 -0.24224,-0.172661 -0.32976,-0.169492 -0.59276,0.02146 -1.0787,0.783211 -2.2693,3.110308 -2.97374,5.812345 -0.40145,1.539839 -0.64981,2.991431 -0.78004,4.559041 -0.0646,0.7778 -0.0908,1.51763 -0.10667,3.01531 l -0.0164,1.54373 0.50697,0.72474 0.50697,0.72474 1.12872,0.0162 c 1.81839,0.0261 2.71648,0.14498 4.48691,0.59379 0.62946,0.15957 0.73084,0.17195 0.77374,0.0945 z m -26.83331,42.2206 c -1.33833,-0.0401 -2.29789,-0.16665 -3.503631,-0.46203 -1.03296,-0.25305 -1.91833,-0.5676 -2.86948,-1.01946 -1.35028,-0.64147 -2.36808,-1.3311 -3.38379,-2.29275 -1.00224,-0.9489 -1.65353,-1.81197 -2.24411,-2.97383 -0.41437,-0.81519 -0.65338,-1.46352 -0.84598,-2.29473 -0.1472,-0.63528 -0.15298,-0.7157 -0.15236,-2.12004 6.6e-4,-1.48 0.003,-1.50172 0.22318,-2.36608 0.52977,-2.07698 1.6542,-3.96867 3.31725,-5.58079 1.56051,-1.51271 3.43876,-2.67339 5.60015,-3.46065 1.753911,-0.63883 2.851541,-0.88195 4.828911,-1.06956 0.95219,-0.0904 1.0846,-0.0944 2.04477,-0.0619 1.51254,0.0512 2.1507,0.10375 3.01491,0.24843 1.63353,0.27347 3.11713,0.73479 4.58459,1.42555 1.61828,0.76177 2.87127,1.60336 4.08296,2.74239 1.78047,1.67372 2.96803,3.61942 3.51073,5.75202 0.22156,0.87066 0.22339,0.88998 0.22405,2.37057 6.6e-4,1.47199 -0.007,1.55331 -0.21227,2.36316 -0.19855,0.78204 -0.39448,1.30055 -0.78068,2.06603 -0.87089,1.7262 -2.22708,3.19573 -4.00643,4.34128 -0.56046,0.36083 -0.90642,0.55442 -1.53125,0.85686 -1.70639,0.82594 -3.67912,1.35636 -5.57319,1.49848 -0.37376,0.0281 -5.60653,0.0587 -6.32833,0.037 z m 5.95519,-3.81656 c 1.58631,-0.14534 2.60124,-0.40795 3.91043,-1.01179 1.20968,-0.55795 1.94028,-1.04708 2.70412,-1.81039 0.90166,-0.90102 1.53203,-1.94024 1.7991,-2.96595 0.2773,-1.06498 0.3018,-1.65986 0.10693,-2.59692 -0.26823,-1.28983 -0.7772,-2.36211 -1.58191,-3.33271 -0.51536,-0.6216 -1.62997,-1.6451 -2.26572,-2.08052 -0.94491,-0.64716 -2.31149,-1.29204 -3.5336,-1.66749 -0.87653,-0.26928 -2.02538,-0.50138 -2.88561,-0.58296 -0.48595,-0.0461 -2.49383,-0.0469 -2.97013,-10e-4 -2.20716,0.21188 -4.423421,0.96156 -6.194001,2.09522 -1.63851,1.04909 -3.14912,2.78367 -3.71528,4.26614 -0.3026,0.79233 -0.46237,1.53482 -0.48537,2.25566 -0.0142,0.44537 -0.008,0.52905 0.0635,0.90892 0.20514,1.08386 0.51875,1.8851 1.0165,2.59704 0.32662,0.46719 0.53968,0.71184 1.044,1.19882 1.33645,1.29051 3.11586,2.14909 5.345251,2.57913 0.58766,0.11336 0.89992,0.14822 1.56716,0.17499 0.83736,0.0336 5.64887,0.013 6.07459,-0.0261 z m -3.8358,-3.89837 c -0.20768,-0.0121 -0.38875,-0.0388 -0.45839,-0.0674 -0.16186,-0.0666 -0.52616,-0.43071 -0.65405,-0.6537 -0.0592,-0.10316 -0.12995,-0.26579 -0.15731,-0.36141 -0.054,-0.18877 -0.0542,-0.18691 0.16731,-1.36987 0.0342,-0.18251 0.0642,-0.44869 0.0667,-0.59152 0.006,-0.34702 -0.0284,-0.4053 -0.36141,-0.61081 -0.64715,-0.39944 -0.93498,-0.62753 -1.2024,-0.95282 -0.39194,-0.47676 -0.51529,-0.88487 -0.39986,-1.32299 0.0801,-0.3041 0.21655,-0.52786 0.47608,-0.78083 0.32851,-0.32021 0.44534,-0.36318 1.0334,-0.38014 0.26785,-0.008 0.49983,3.8e-4 0.60282,0.0211 0.19982,0.0401 0.57038,0.21079 1.02709,0.47313 0.18368,0.10551 0.34945,0.19184 0.36839,0.19184 0.0189,0 0.17534,-0.0855 0.34758,-0.19002 0.38058,-0.23093 0.74042,-0.3995 0.97871,-0.45847 0.2313,-0.0572 0.86728,-0.0586 1.08603,-0.002 0.34477,0.0887 0.75528,0.4189 0.92672,0.7454 0.23782,0.4529 0.24387,0.89314 0.0184,1.33757 -0.18252,0.35977 -0.79571,0.93059 -1.34339,1.25056 -0.25473,0.14882 -0.39673,0.2736 -0.45132,0.39658 -0.0625,0.1407 -0.0497,0.49391 0.0319,0.88458 0.15563,0.74513 0.18395,1.22391 0.0921,1.55717 -0.0926,0.3362 -0.34029,0.6164 -0.68104,0.77053 -0.31961,0.14458 -0.61263,0.16663 -1.51399,0.11392 z m -19.554686,-7.53298 c -0.32244,-0.0258 -0.918724,-0.14756 -1.145494,-0.23386 -0.82917,-0.31559 -1.538465,-0.95232 -1.954976,-1.75498 -0.267837,-0.51615 -0.359656,-0.86997 -0.359656,-1.38591 0,-2.00448 1.201393,-3.70198 3.018188,-4.26453 0.560179,-0.17345 1.45139,-0.18714 2.076699,-0.0319 0.315126,0.0782 0.903744,0.36015 1.195144,0.57241 0.305,0.22215 0.7074,0.63096 0.90359,0.91797 0.0844,0.12345 0.2466,0.41053 0.36048,0.63796 l 0.20705,0.41352 v 0.65486 c 0,0.97836 -0.0393,1.17855 -0.37872,1.92765 -0.27882,0.61541 -0.56091,1.00911 -1.08209,1.51018 -0.684578,0.65816 -1.313277,0.96204 -2.148838,1.03863 -0.173636,0.0159 -0.33585,0.0271 -0.360477,0.0249 -0.02463,-0.002 -0.173532,-0.0143 -0.3309,-0.0269 z m 39.561916,6.9e-4 c -0.5248,-0.0503 -1.05619,-0.24314 -1.52106,-0.55195 -0.26269,-0.17451 -0.85305,-0.72777 -1.06545,-0.9985 -0.43091,-0.54925 -0.87374,-1.50436 -0.94221,-2.03215 -0.017,-0.13073 -0.0308,-0.534 -0.0308,-0.89617 v -0.65848 l 0.20528,-0.40989 c 0.11291,-0.22545 0.27581,-0.51161 0.36202,-0.63591 0.2019,-0.29114 0.60116,-0.69596 0.90382,-0.91641 0.29197,-0.21267 0.88018,-0.49421 1.19677,-0.57282 0.55881,-0.13875 1.46939,-0.13973 1.98067,-0.002 0.89584,0.24111 1.74267,0.83684 2.27642,1.60144 0.48917,0.70073 0.79245,1.61843 0.82746,2.50385 0.0256,0.64755 -0.0531,1.00262 -0.35201,1.58884 -0.36179,0.70946 -0.95208,1.27895 -1.6802,1.621 -0.60024,0.28197 -1.46582,0.4259 -2.16068,0.35928 z"
       id="path1" /></g></svg>
